<mxfile host="65bd71144e">
    <diagram id="qXs208I0pe8-l0nW8UbY" name="ページ1">
        <mxGraphModel dx="544" dy="484" grid="1" gridSize="10" guides="1" tooltips="1" connect="1" arrows="1" fold="1" page="1" pageScale="1" pageWidth="827" pageHeight="1169" math="0" shadow="0">
            <root>
                <mxCell id="0"/>
                <mxCell id="1" parent="0"/>
                <mxCell id="12" value="users" style="swimlane;whiteSpace=wrap;html=1;fontFamily=Helvetica;" vertex="1" parent="1">
                    <mxGeometry x="90" y="330" width="110" height="220" as="geometry"/>
                </mxCell>
                <mxCell id="13" value="id" style="text;html=1;align=center;verticalAlign=middle;resizable=0;points=[];autosize=1;strokeColor=none;fillColor=none;fontFamily=Helvetica;" vertex="1" parent="12">
                    <mxGeometry x="35" y="25" width="30" height="30" as="geometry"/>
                </mxCell>
                <mxCell id="19" value="ceated_at" style="text;html=1;align=center;verticalAlign=middle;resizable=0;points=[];autosize=1;strokeColor=none;fillColor=none;fontFamily=Helvetica;" vertex="1" parent="12">
                    <mxGeometry x="10" y="150" width="80" height="30" as="geometry"/>
                </mxCell>
                <mxCell id="20" value="updated_at" style="text;html=1;align=center;verticalAlign=middle;resizable=0;points=[];autosize=1;strokeColor=none;fillColor=none;fontFamily=Helvetica;" vertex="1" parent="12">
                    <mxGeometry x="10" y="180" width="80" height="30" as="geometry"/>
                </mxCell>
                <mxCell id="14" value="name" style="text;html=1;align=center;verticalAlign=middle;resizable=0;points=[];autosize=1;strokeColor=none;fillColor=none;fontFamily=Helvetica;" vertex="1" parent="12">
                    <mxGeometry x="30" y="55" width="50" height="30" as="geometry"/>
                </mxCell>
                <mxCell id="15" value="email" style="text;html=1;align=center;verticalAlign=middle;resizable=0;points=[];autosize=1;strokeColor=none;fillColor=none;fontFamily=Helvetica;" vertex="1" parent="12">
                    <mxGeometry x="25" y="85" width="50" height="30" as="geometry"/>
                </mxCell>
                <mxCell id="16" value="password" style="text;html=1;align=center;verticalAlign=middle;resizable=0;points=[];autosize=1;strokeColor=none;fillColor=none;fontFamily=Helvetica;" vertex="1" parent="12">
                    <mxGeometry x="20" y="120" width="70" height="30" as="geometry"/>
                </mxCell>
                <mxCell id="21" value="contacts" style="swimlane;whiteSpace=wrap;html=1;fontFamily=Helvetica;" vertex="1" parent="1">
                    <mxGeometry x="360" y="80" width="160" height="415" as="geometry"/>
                </mxCell>
                <mxCell id="22" value="id(user_id)" style="text;html=1;align=center;verticalAlign=middle;resizable=0;points=[];autosize=1;strokeColor=none;fillColor=none;fontFamily=Helvetica;" vertex="1" parent="21">
                    <mxGeometry x="30" y="30" width="80" height="30" as="geometry"/>
                </mxCell>
                <mxCell id="23" value="category_id" style="text;html=1;align=center;verticalAlign=middle;resizable=0;points=[];autosize=1;strokeColor=none;fillColor=none;fontFamily=Helvetica;" vertex="1" parent="21">
                    <mxGeometry x="30" y="60" width="90" height="30" as="geometry"/>
                </mxCell>
                <mxCell id="25" value="last_id" style="text;html=1;align=center;verticalAlign=middle;resizable=0;points=[];autosize=1;strokeColor=none;fillColor=none;fontFamily=Helvetica;" vertex="1" parent="21">
                    <mxGeometry x="40" y="120" width="60" height="30" as="geometry"/>
                </mxCell>
                <mxCell id="29" value="email" style="text;html=1;align=center;verticalAlign=middle;resizable=0;points=[];autosize=1;strokeColor=none;fillColor=none;fontFamily=Helvetica;" vertex="1" parent="21">
                    <mxGeometry x="50" y="180" width="50" height="30" as="geometry"/>
                </mxCell>
                <mxCell id="33" value="tell" style="text;html=1;align=center;verticalAlign=middle;resizable=0;points=[];autosize=1;strokeColor=none;fillColor=none;fontFamily=Helvetica;" vertex="1" parent="21">
                    <mxGeometry x="55" y="210" width="40" height="30" as="geometry"/>
                </mxCell>
                <mxCell id="24" value="first_name" style="text;html=1;align=center;verticalAlign=middle;resizable=0;points=[];autosize=1;strokeColor=none;fillColor=none;fontFamily=Helvetica;" vertex="1" parent="21">
                    <mxGeometry x="35" y="90" width="80" height="30" as="geometry"/>
                </mxCell>
                <mxCell id="26" value="gender" style="text;html=1;align=center;verticalAlign=middle;resizable=0;points=[];autosize=1;strokeColor=none;fillColor=none;fontFamily=Helvetica;" vertex="1" parent="21">
                    <mxGeometry x="45" y="150" width="60" height="30" as="geometry"/>
                </mxCell>
                <mxCell id="36" value="address" style="text;html=1;align=center;verticalAlign=middle;resizable=0;points=[];autosize=1;strokeColor=none;fillColor=none;fontFamily=Helvetica;" vertex="1" parent="21">
                    <mxGeometry x="45" y="240" width="70" height="30" as="geometry"/>
                </mxCell>
                <mxCell id="39" value="building" style="text;html=1;align=center;verticalAlign=middle;resizable=0;points=[];autosize=1;strokeColor=none;fillColor=none;fontFamily=Helvetica;" vertex="1" parent="21">
                    <mxGeometry x="50" y="270" width="60" height="30" as="geometry"/>
                </mxCell>
                <mxCell id="45" value="created_at" style="text;html=1;align=center;verticalAlign=middle;resizable=0;points=[];autosize=1;strokeColor=none;fillColor=none;fontFamily=Helvetica;" vertex="1" parent="21">
                    <mxGeometry x="35" y="330" width="80" height="30" as="geometry"/>
                </mxCell>
                <mxCell id="46" value="updated-at" style="text;html=1;align=center;verticalAlign=middle;resizable=0;points=[];autosize=1;strokeColor=none;fillColor=none;fontFamily=Helvetica;" vertex="1" parent="21">
                    <mxGeometry x="35" y="370" width="80" height="30" as="geometry"/>
                </mxCell>
                <mxCell id="40" value="detail" style="text;html=1;align=center;verticalAlign=middle;resizable=0;points=[];autosize=1;strokeColor=none;fillColor=none;fontFamily=Helvetica;" vertex="1" parent="21">
                    <mxGeometry x="50" y="300" width="50" height="30" as="geometry"/>
                </mxCell>
                <mxCell id="47" value="categories" style="swimlane;whiteSpace=wrap;html=1;fontFamily=Helvetica;" vertex="1" parent="1">
                    <mxGeometry x="80" y="650" width="120" height="180" as="geometry"/>
                </mxCell>
                <mxCell id="52" value="content" style="text;html=1;align=center;verticalAlign=middle;resizable=0;points=[];autosize=1;strokeColor=none;fillColor=none;fontFamily=Helvetica;" vertex="1" parent="47">
                    <mxGeometry x="30" y="55" width="60" height="30" as="geometry"/>
                </mxCell>
                <mxCell id="54" value="updated_at" style="text;html=1;align=center;verticalAlign=middle;resizable=0;points=[];autosize=1;strokeColor=none;fillColor=none;fontFamily=Helvetica;" vertex="1" parent="47">
                    <mxGeometry x="20" y="140" width="80" height="30" as="geometry"/>
                </mxCell>
                <mxCell id="53" value="created_at" style="text;html=1;align=center;verticalAlign=middle;resizable=0;points=[];autosize=1;strokeColor=none;fillColor=none;fontFamily=Helvetica;" vertex="1" parent="47">
                    <mxGeometry x="20" y="100" width="80" height="30" as="geometry"/>
                </mxCell>
                <mxCell id="48" value="id" style="text;html=1;align=center;verticalAlign=middle;resizable=0;points=[];autosize=1;strokeColor=none;fillColor=none;fontFamily=Helvetica;" vertex="1" parent="47">
                    <mxGeometry x="45" y="20" width="30" height="30" as="geometry"/>
                </mxCell>
                <mxCell id="90" value="" style="edgeStyle=entityRelationEdgeStyle;fontSize=12;html=1;endArrow=ERoneToMany;startArrow=ERmandOne;" edge="1" parent="1">
                    <mxGeometry width="100" height="100" relative="1" as="geometry">
                        <mxPoint x="200" y="370" as="sourcePoint"/>
                        <mxPoint x="360" y="120" as="targetPoint"/>
                    </mxGeometry>
                </mxCell>
                <mxCell id="101" value="" style="edgeStyle=entityRelationEdgeStyle;fontSize=12;html=1;endArrow=ERoneToMany;startArrow=ERmandOne;" edge="1" parent="1">
                    <mxGeometry width="100" height="100" relative="1" as="geometry">
                        <mxPoint x="200" y="680" as="sourcePoint"/>
                        <mxPoint x="360" y="158" as="targetPoint"/>
                    </mxGeometry>
                </mxCell>
            </root>
        </mxGraphModel>
    </diagram>
</mxfile>